<svg width="382" height="214" viewBox="0 0 382 214" fill="none" xmlns="http://www.w3.org/2000/svg">
<path d="M0 31C0 13.8792 13.8792 0 31 0H350C367.121 0 381 13.8792 381 31V183C381 200.121 367.121 214 350 214H31C13.8792 214 0 200.121 0 183V31Z" fill="#682FC6"/>
<g opacity="0.4248">
<mask id="path-2-inside-1" fill="white">
<path d="M240.403 6.87911C231.213 2.32736 219.825 -0.664541 209.387 2.00795C201.29 4.07886 195.178 9.47175 190.565 15.5407C185.361 22.387 181.698 30.0584 177.809 37.5329C175.425 42.1165 172.831 46.5139 169.36 50.528C165.626 54.8455 161.174 58.6838 156.203 61.8621C151.07 65.1521 145.412 67.7181 139.419 69.4909C132.59 71.5139 125.485 72.6319 118.477 74.0533C106.963 76.3851 94.7439 80.0052 87.2034 88.6402C83.8753 92.4519 81.9036 97.0729 81.808 101.917C81.7124 106.895 83.5049 111.793 86.3191 116.052C92.7184 125.736 103.85 131.278 115.465 134.823C127.917 138.624 141.056 140.434 153.245 144.943C159.346 147.201 165.183 150.161 170.017 154.207C174.809 158.215 178.514 163.102 181.806 168.144C188.002 177.647 192.997 188.012 201.936 195.827C206.053 199.431 210.97 202.343 216.533 203.829C222.119 205.314 228.082 205.314 233.759 204.239C260.449 199.165 272.327 175.193 283.088 155.511C289.111 144.502 295.785 133.78 305.943 125.336C315.742 117.191 327.429 110.973 336.559 102.173C344.661 94.3684 350.755 84.3759 349.322 73.4358C347.959 63.0439 340.694 53.8446 331.785 47.3391C321.52 39.8433 308.817 35.4566 296.49 31.4266C289.864 29.2599 283.154 27.2422 276.719 24.6442C270.374 22.0782 264.267 19.0757 258.244 15.9613C255.364 14.476 252.502 12.9641 249.634 11.4628C246.587 9.87103 243.432 8.47089 240.349 6.94299C240.14 6.83652 239.949 7.124 240.158 7.23047C243.235 8.75305 246.181 10.5045 249.222 12.091C252.09 13.5923 254.958 15.0989 257.832 16.5895C263.717 19.6293 269.68 22.568 275.871 25.0914C288.149 30.101 301.27 33.2367 313.513 38.3314C324.937 43.0855 335.681 49.4632 342.546 59.1097C345.695 63.539 347.941 68.5486 348.557 73.7871C349.202 79.2545 347.965 84.7113 345.342 89.6676C339.863 100.028 329.664 107.417 319.739 114.29C314.469 117.936 309.151 121.546 304.342 125.672C299.693 129.654 295.696 134.158 292.224 138.992C285.138 148.862 280.179 159.759 274.096 170.114C268.151 180.229 260.885 190.349 250.19 196.972C240.307 203.089 227.282 206.373 215.565 202.78C204.033 199.245 196.403 189.897 190.595 180.836C184.441 171.237 179.326 160.701 169.939 153.158C160.672 145.715 148.483 142.196 136.659 139.385C124.153 136.41 111.086 133.966 100.062 127.62C90.3224 122.014 82.2262 112.304 82.6026 101.566C82.985 90.6898 92.8498 83.0343 103.288 78.9298C115.8 74.0107 129.847 73.5795 142.574 69.2087C153.215 65.5567 162.656 59.2535 169.677 51.2573C175.915 44.1502 179.428 35.6909 183.808 27.6521C187.596 20.7047 191.886 13.5869 198.381 8.32715C205.102 2.88635 213.718 0.836734 222.663 1.95471C228.817 2.72132 234.667 4.66979 240.104 7.31565C240.439 7.47004 240.726 7.0335 240.403 6.87911Z"/>
</mask>
<path d="M240.403 6.87911C231.213 2.32736 219.825 -0.664541 209.387 2.00795C201.29 4.07886 195.178 9.47175 190.565 15.5407C185.361 22.387 181.698 30.0584 177.809 37.5329C175.425 42.1165 172.831 46.5139 169.36 50.528C165.626 54.8455 161.174 58.6838 156.203 61.8621C151.07 65.1521 145.412 67.7181 139.419 69.4909C132.59 71.5139 125.485 72.6319 118.477 74.0533C106.963 76.3851 94.7439 80.0052 87.2034 88.6402C83.8753 92.4519 81.9036 97.0729 81.808 101.917C81.7124 106.895 83.5049 111.793 86.3191 116.052C92.7184 125.736 103.85 131.278 115.465 134.823C127.917 138.624 141.056 140.434 153.245 144.943C159.346 147.201 165.183 150.161 170.017 154.207C174.809 158.215 178.514 163.102 181.806 168.144C188.002 177.647 192.997 188.012 201.936 195.827C206.053 199.431 210.97 202.343 216.533 203.829C222.119 205.314 228.082 205.314 233.759 204.239C260.449 199.165 272.327 175.193 283.088 155.511C289.111 144.502 295.785 133.78 305.943 125.336C315.742 117.191 327.429 110.973 336.559 102.173C344.661 94.3684 350.755 84.3759 349.322 73.4358C347.959 63.0439 340.694 53.8446 331.785 47.3391C321.52 39.8433 308.817 35.4566 296.49 31.4266C289.864 29.2599 283.154 27.2422 276.719 24.6442C270.374 22.0782 264.267 19.0757 258.244 15.9613C255.364 14.476 252.502 12.9641 249.634 11.4628C246.587 9.87103 243.432 8.47089 240.349 6.94299C240.14 6.83652 239.949 7.124 240.158 7.23047C243.235 8.75305 246.181 10.5045 249.222 12.091C252.09 13.5923 254.958 15.0989 257.832 16.5895C263.717 19.6293 269.68 22.568 275.871 25.0914C288.149 30.101 301.27 33.2367 313.513 38.3314C324.937 43.0855 335.681 49.4632 342.546 59.1097C345.695 63.539 347.941 68.5486 348.557 73.7871C349.202 79.2545 347.965 84.7113 345.342 89.6676C339.863 100.028 329.664 107.417 319.739 114.29C314.469 117.936 309.151 121.546 304.342 125.672C299.693 129.654 295.696 134.158 292.224 138.992C285.138 148.862 280.179 159.759 274.096 170.114C268.151 180.229 260.885 190.349 250.19 196.972C240.307 203.089 227.282 206.373 215.565 202.78C204.033 199.245 196.403 189.897 190.595 180.836C184.441 171.237 179.326 160.701 169.939 153.158C160.672 145.715 148.483 142.196 136.659 139.385C124.153 136.41 111.086 133.966 100.062 127.62C90.3224 122.014 82.2262 112.304 82.6026 101.566C82.985 90.6898 92.8498 83.0343 103.288 78.9298C115.8 74.0107 129.847 73.5795 142.574 69.2087C153.215 65.5567 162.656 59.2535 169.677 51.2573C175.915 44.1502 179.428 35.6909 183.808 27.6521C187.596 20.7047 191.886 13.5869 198.381 8.32715C205.102 2.88635 213.718 0.836734 222.663 1.95471C228.817 2.72132 234.667 4.66979 240.104 7.31565C240.439 7.47004 240.726 7.0335 240.403 6.87911Z" fill="url(#paint0_linear)"/>
<path d="M240.403 6.87911L239.959 7.77529L239.971 7.78116L240.403 6.87911ZM209.387 2.00795L209.634 2.97675L209.635 2.9767L209.387 2.00795ZM190.565 15.5407L191.361 16.1459L191.361 16.1459L190.565 15.5407ZM177.809 37.5329L176.922 37.0712L176.921 37.0714L177.809 37.5329ZM169.36 50.528L170.116 51.1821L170.116 51.1821L169.36 50.528ZM156.203 61.8621L155.664 61.0195L155.663 61.0202L156.203 61.8621ZM139.419 69.4909L139.135 68.532L139.135 68.5321L139.419 69.4909ZM118.477 74.0533L118.675 75.0334L118.675 75.0333L118.477 74.0533ZM87.2034 88.6402L86.4502 87.9824L86.4501 87.9825L87.2034 88.6402ZM81.808 101.917L80.8082 101.898L80.8082 101.898L81.808 101.917ZM86.3191 116.052L85.4848 116.603L85.4848 116.603L86.3191 116.052ZM115.465 134.823L115.757 133.867H115.757L115.465 134.823ZM153.245 144.943L153.592 144.006L153.592 144.006L153.245 144.943ZM170.017 154.207L169.375 154.973L169.376 154.974L170.017 154.207ZM181.806 168.144L182.644 167.598L182.643 167.597L181.806 168.144ZM201.936 195.827L202.594 195.075L202.594 195.074L201.936 195.827ZM216.533 203.829L216.275 204.795L216.276 204.795L216.533 203.829ZM233.759 204.239L233.945 205.221L233.945 205.221L233.759 204.239ZM283.088 155.511L282.211 155.031L282.211 155.031L283.088 155.511ZM305.943 125.336L305.304 124.567L305.943 125.336ZM336.559 102.173L335.865 101.453L335.865 101.453L336.559 102.173ZM349.322 73.4358L350.313 73.3058V73.3058L349.322 73.4358ZM331.785 47.3391L332.375 46.5315V46.5315L331.785 47.3391ZM296.49 31.4266L296.18 32.3771L296.18 32.3771L296.49 31.4266ZM276.719 24.6442L276.344 25.5713L276.345 25.5715L276.719 24.6442ZM258.244 15.9613L258.704 15.073L258.703 15.0725L258.244 15.9613ZM249.634 11.4628L250.098 10.5768L250.097 10.5764L249.634 11.4628ZM240.349 6.94299L239.895 7.83419L239.905 7.839L240.349 6.94299ZM240.158 7.23047L239.704 8.12168L239.714 8.12676L240.158 7.23047ZM249.222 12.091L249.686 11.205L249.684 11.2044L249.222 12.091ZM257.832 16.5895L257.372 17.4772L257.373 17.478L257.832 16.5895ZM275.871 25.0914L276.248 24.1655L276.248 24.1654L275.871 25.0914ZM313.513 38.3314L313.129 39.2547H313.129L313.513 38.3314ZM342.546 59.1097L343.361 58.5303L343.361 58.5299L342.546 59.1097ZM348.557 73.7871L347.564 73.9038L347.564 73.9043L348.557 73.7871ZM345.342 89.6676L344.458 89.1999L344.458 89.2001L345.342 89.6676ZM319.739 114.29L320.308 115.112L320.308 115.112L319.739 114.29ZM304.342 125.672L304.992 126.431L304.993 126.431L304.342 125.672ZM292.224 138.992L291.412 138.408L291.412 138.408L292.224 138.992ZM274.096 170.114L274.958 170.62L274.958 170.62L274.096 170.114ZM250.19 196.972L250.716 197.822L250.716 197.822L250.19 196.972ZM215.565 202.78L215.858 201.824L215.858 201.824L215.565 202.78ZM190.595 180.836L191.437 180.296L191.437 180.296L190.595 180.836ZM169.939 153.158L170.566 152.378L170.566 152.378L169.939 153.158ZM136.659 139.385L136.427 140.358L136.427 140.358L136.659 139.385ZM100.062 127.62L100.561 126.753L100.561 126.753L100.062 127.62ZM82.6026 101.566L81.6033 101.531L81.6033 101.531L82.6026 101.566ZM103.288 78.9298L102.922 77.9991L102.922 77.9991L103.288 78.9298ZM142.574 69.2087L142.249 68.2629L142.249 68.263L142.574 69.2087ZM169.677 51.2573L170.428 51.9171L170.428 51.917L169.677 51.2573ZM183.808 27.6521L182.93 27.1734L182.929 27.1737L183.808 27.6521ZM198.381 8.32715L197.751 7.54986L197.751 7.55003L198.381 8.32715ZM222.663 1.95471L222.539 2.94699L222.539 2.94704L222.663 1.95471ZM240.104 7.31565L239.667 8.21484L239.676 8.21935L239.685 8.22366L240.104 7.31565ZM240.847 5.98301C231.554 1.37993 219.906 -1.71746 209.139 1.03919L209.635 2.9767C219.744 0.388376 230.873 3.2748 239.959 7.77521L240.847 5.98301ZM209.139 1.03914C200.745 3.18617 194.459 8.765 189.769 14.9356L191.361 16.1459C195.897 10.1785 201.836 4.97155 209.634 2.97675L209.139 1.03914ZM189.769 14.9356C184.499 21.8682 180.788 29.6414 176.922 37.0712L178.696 37.9945C182.609 30.4754 186.223 22.9058 191.361 16.1459L189.769 14.9356ZM176.921 37.0714C174.552 41.6273 172.001 45.9458 168.604 49.8738L170.116 51.1821C173.662 47.0821 176.297 42.6058 178.696 37.9943L176.921 37.0714ZM168.604 49.8738C164.934 54.1163 160.557 57.8918 155.664 61.0195L156.742 62.7046C161.792 59.4759 166.317 55.5747 170.116 51.1821L168.604 49.8738ZM155.663 61.0202C150.613 64.2576 145.041 66.785 139.135 68.532L139.703 70.4498C145.783 68.6512 151.528 66.0466 156.743 62.7039L155.663 61.0202ZM139.135 68.5321C132.362 70.5384 125.345 71.64 118.278 73.0732L118.675 75.0333C125.626 73.6237 132.817 72.4894 139.703 70.4497L139.135 68.5321ZM118.278 73.0732C106.762 75.4054 94.2321 79.071 86.4502 87.9824L87.9566 89.2979C95.2557 80.9394 107.163 77.3647 118.675 75.0334L118.278 73.0732ZM86.4501 87.9825C82.9883 91.9474 80.909 96.7882 80.8082 101.898L82.8078 101.937C82.8981 97.3575 84.7623 92.9565 87.9567 89.2979L86.4501 87.9825ZM80.8082 101.898C80.7077 107.128 82.5895 112.221 85.4848 116.603L87.1534 115.5C84.4203 111.364 82.717 106.663 82.8078 101.937L80.8082 101.898ZM85.4848 116.603C92.0785 126.581 103.487 132.212 115.173 135.78L115.757 133.867C104.213 130.343 93.3582 124.89 87.1534 115.5L85.4848 116.603ZM115.173 135.78C121.44 137.692 127.881 139.105 134.226 140.591C140.588 142.082 146.867 143.65 152.898 145.881L153.592 144.006C147.435 141.728 141.05 140.136 134.682 138.644C128.297 137.148 121.943 135.755 115.757 133.867L115.173 135.78ZM152.898 145.881C158.933 148.114 164.658 151.025 169.375 154.973L170.659 153.44C165.709 149.297 159.759 146.287 153.592 144.006L152.898 145.881ZM169.376 154.974C174.058 158.891 177.699 163.684 180.969 168.691L182.643 167.597C179.328 162.521 175.561 157.54 170.659 153.44L169.376 154.974ZM180.968 168.69C182.507 171.05 183.973 173.466 185.454 175.899C186.932 178.328 188.426 180.774 190.008 183.169C193.173 187.962 196.713 192.589 201.278 196.58L202.594 195.074C198.22 191.25 194.793 186.787 191.677 182.067C190.118 179.707 188.642 177.291 187.162 174.86C185.685 172.433 184.203 169.989 182.644 167.598L180.968 168.69ZM201.277 196.58C205.488 200.266 210.539 203.263 216.275 204.795L216.791 202.862C211.401 201.423 206.617 198.597 202.594 195.075L201.277 196.58ZM216.276 204.795C222.031 206.325 228.148 206.319 233.945 205.221L233.573 203.256C228.017 204.308 222.208 204.303 216.79 202.862L216.276 204.795ZM233.945 205.221C261.187 200.043 273.274 175.545 283.966 155.991L282.211 155.031C271.38 174.84 259.711 198.288 233.572 203.256L233.945 205.221ZM283.966 155.991C289.976 145.004 296.577 134.422 306.582 126.105L305.304 124.567C294.994 133.137 288.246 143.999 282.211 155.031L283.966 155.991ZM306.582 126.105C311.439 122.068 316.762 118.509 322.072 114.822C327.363 111.147 332.625 107.353 337.253 102.893L335.865 101.453C331.363 105.793 326.217 109.508 320.931 113.179C315.666 116.836 310.246 120.459 305.304 124.567L306.582 126.105ZM337.253 102.893C345.444 95.0025 351.808 84.7124 350.313 73.3058L348.33 73.5657C349.703 84.0394 343.878 93.7344 335.865 101.453L337.253 102.893ZM350.313 73.3058C348.902 62.5415 341.406 53.1263 332.375 46.5315L331.195 48.1467C339.982 54.5629 347.016 63.5463 348.33 73.5657L350.313 73.3058ZM332.375 46.5315C321.963 38.9289 309.112 34.501 296.801 30.4761L296.18 32.3771C308.522 36.4122 321.076 40.7577 331.195 48.1467L332.375 46.5315ZM296.801 30.4761C290.144 28.2992 283.487 26.2982 277.093 23.7169L276.345 25.5715C282.821 28.1862 289.584 30.2205 296.18 32.3771L296.801 30.4761ZM277.094 23.7172C270.791 21.1684 264.716 18.1822 258.704 15.073L257.785 16.8496C263.818 19.9691 269.956 22.9881 276.344 25.5713L277.094 23.7172ZM258.703 15.0725C255.826 13.5891 252.971 12.0805 250.098 10.5768L249.171 12.3488C252.034 13.8477 254.902 15.3629 257.786 16.8501L258.703 15.0725ZM250.097 10.5764C247.052 8.98546 243.811 7.54265 240.793 6.04698L239.905 7.839C243.053 9.39912 246.122 10.7566 249.171 12.3492L250.097 10.5764ZM240.803 6.05184C240.178 5.73378 239.549 6.02524 239.264 6.45312C239.121 6.66738 239.019 6.97766 239.09 7.32563C239.167 7.70337 239.418 7.97589 239.704 8.12162L240.612 6.33933C240.793 6.43182 240.989 6.62847 241.05 6.92569C241.105 7.19314 241.024 7.41824 240.929 7.56064C240.74 7.84477 240.311 8.04572 239.895 7.83414L240.803 6.05184ZM239.714 8.12676C242.807 9.65701 245.625 11.3423 248.76 12.9776L249.684 11.2044C246.737 9.66677 243.663 7.84909 240.601 6.33419L239.714 8.12676ZM248.758 12.977C251.625 14.4773 254.495 15.9854 257.372 17.4772L258.292 15.7018C255.421 14.2123 252.556 12.7072 249.686 11.205L248.758 12.977ZM257.373 17.478C263.268 20.5225 269.262 23.4772 275.493 26.0174L276.248 24.1654C270.099 21.6588 264.167 18.7361 258.291 15.701L257.373 17.478ZM275.493 26.0173C281.673 28.5389 288.061 30.5867 294.398 32.6312C300.749 34.6798 307.051 36.7255 313.129 39.2547L313.897 37.4082C307.732 34.8425 301.353 32.7731 295.012 30.7278C288.659 28.6783 282.346 26.6535 276.248 24.1655L275.493 26.0173ZM313.129 39.2547C324.488 43.9815 335.026 50.2685 341.731 59.6896L343.361 58.5299C336.335 48.6579 325.387 42.1895 313.897 37.4082L313.129 39.2547ZM341.731 59.6891C344.807 64.0168 346.972 68.8702 347.564 73.9038L349.55 73.6704C348.91 68.227 346.582 63.0613 343.361 58.5303L341.731 59.6891ZM347.564 73.9043C348.182 79.142 347.001 84.3961 344.458 89.1999L346.226 90.1354C348.93 85.0265 350.222 79.3671 349.55 73.6699L347.564 73.9043ZM344.458 89.2001C339.11 99.3116 329.123 106.575 319.17 113.468L320.308 115.112C330.204 108.259 340.616 100.743 346.226 90.1352L344.458 89.2001ZM319.17 113.467C313.915 117.103 308.549 120.746 303.69 124.913L304.993 126.431C309.754 122.346 315.023 118.769 320.308 115.112L319.17 113.467ZM303.691 124.912C298.974 128.953 294.924 133.518 291.412 138.408L293.036 139.575C296.467 134.797 300.412 130.355 304.992 126.431L303.691 124.912ZM291.412 138.408C287.833 143.393 284.799 148.626 281.907 153.889C279.006 159.17 276.266 164.446 273.234 169.607L274.958 170.62C278.009 165.427 280.79 160.077 283.66 154.853C286.54 149.611 289.529 144.46 293.037 139.575L291.412 138.408ZM273.234 169.607C267.312 179.682 260.148 189.63 249.663 196.122L250.716 197.822C261.623 191.069 268.989 180.776 274.958 170.62L273.234 169.607ZM249.664 196.121C239.946 202.136 227.221 205.309 215.858 201.824L215.272 203.736C227.343 207.438 240.668 204.041 250.716 197.822L249.664 196.121ZM215.858 201.824C204.685 198.399 197.219 189.317 191.437 180.296L189.753 181.375C195.586 190.476 203.381 200.091 215.272 203.736L215.858 201.824ZM191.437 180.296C185.368 170.83 180.121 160.057 170.566 152.378L169.313 153.937C178.532 161.346 183.514 171.644 189.753 181.375L191.437 180.296ZM170.566 152.378C161.105 144.78 148.712 141.223 136.89 138.413L136.427 140.358C148.254 143.17 160.239 146.65 169.313 153.938L170.566 152.378ZM136.89 138.413C124.304 135.418 111.425 133.007 100.561 126.753L99.5628 128.487C110.746 134.925 124.002 137.402 136.427 140.358L136.89 138.413ZM100.561 126.753C90.9747 121.236 83.2442 111.809 83.602 101.601L81.6033 101.531C81.2083 112.799 89.67 122.793 99.5628 128.487L100.561 126.753ZM83.602 101.601C83.962 91.3621 93.2953 83.9337 103.654 79.8604L102.922 77.9991C92.4043 82.135 82.0081 90.0175 81.6033 101.531L83.602 101.601ZM103.654 79.8604C109.812 77.4395 116.365 76.1161 123.037 74.846C129.681 73.5814 136.453 72.3681 142.899 70.1545L142.249 68.263C135.968 70.4201 129.353 71.6078 122.663 72.8813C116.003 74.1492 109.276 75.501 102.922 77.9991L103.654 79.8604ZM142.899 70.1546C153.699 66.448 163.288 60.0488 170.428 51.9171L168.925 50.5975C162.023 58.4582 152.732 64.6654 142.249 68.2629L142.899 70.1546ZM170.428 51.917C176.764 44.6985 180.372 36.0488 184.686 28.1305L182.929 27.1737C178.484 35.3329 175.065 43.6019 168.925 50.5976L170.428 51.917ZM184.685 28.1308C188.469 21.1918 192.681 14.2299 199.01 9.10427L197.751 7.55003C191.091 12.944 186.722 20.2176 182.93 27.1734L184.685 28.1308ZM199.01 9.10444C205.49 3.85893 213.824 1.85765 222.539 2.94699L222.787 0.962427C213.613 -0.184184 204.715 1.91377 197.751 7.54986L199.01 9.10444ZM222.539 2.94704C228.565 3.69756 234.308 5.60734 239.667 8.21484L240.542 6.41647C235.026 3.73223 229.07 1.74507 222.787 0.962375L222.539 2.94704ZM239.685 8.22366C240.346 8.52856 241.014 8.24252 241.33 7.77017C241.488 7.53561 241.599 7.19615 241.516 6.81918C241.427 6.41279 241.148 6.12709 240.835 5.97706L239.971 7.78116C239.819 7.70832 239.626 7.53508 239.563 7.24914C239.506 6.99262 239.585 6.78159 239.669 6.65617C239.84 6.40209 240.197 6.25713 240.523 6.40765L239.685 8.22366Z" fill="#FFBABA" mask="url(#path-2-inside-1)"/>
</g>
<path d="M380.452 27.2013C352.102 27.2495 329.158 50.8792 329.202 79.9696C329.246 109.06 352.272 132.601 380.621 132.553" stroke="#1D262D" stroke-width="2" stroke-miterlimit="10"/>
<path d="M380.954 120.573C359.555 120.609 342.186 103.08 342.151 81.4297C342.115 59.7694 359.432 42.1876 380.821 42.1519L380.954 120.573Z" fill="#FFCD7F"/>
<path d="M339.059 60.36L334.663 55.91L339.059 51.46C339.613 50.9 339.613 49.98 339.059 49.42C338.506 48.86 337.597 48.86 337.044 49.42L332.648 53.87L328.252 49.42C327.698 48.86 326.789 48.86 326.236 49.42C325.683 49.98 325.683 50.9 326.236 51.46L330.632 55.91L326.236 60.36C325.683 60.92 325.683 61.84 326.236 62.4C326.789 62.96 327.698 62.96 328.252 62.4L332.648 57.95L337.044 62.4C337.597 62.96 338.506 62.96 339.059 62.4C339.613 61.84 339.613 60.92 339.059 60.36Z" fill="#FFCD7F"/>
<path d="M337.362 109.154C339.88 108.091 341.07 105.163 340.019 102.615C338.969 100.066 336.077 98.8619 333.559 99.9251C331.041 100.988 329.851 103.916 330.902 106.465C331.952 109.013 334.845 110.217 337.362 109.154Z" fill="#FF9D00"/>
<path d="M266.436 197.345L262.224 194.552L262.81 189.325L258.759 192.69L254.116 190.694L255.824 195.577L252.353 199.59L257.465 199.226L259.967 203.7L261.423 198.599L266.436 197.345ZM258.12 198.014L255.009 198.235L257.123 195.793L256.086 192.821L258.917 194.031L261.375 191.984L261.014 195.172L263.579 196.875L260.526 197.638L259.644 200.746L258.12 198.014Z" fill="#FFCD7F"/>
<path d="M262.008 27.26C267.53 27.26 272.015 22.73 272.015 17.13C272.015 11.54 267.54 7 262.008 7C256.485 7 252 11.53 252 17.13C252 22.73 256.485 27.26 262.008 27.26ZM262.008 12.38C264.606 12.38 266.71 14.51 266.71 17.14C266.71 19.77 264.606 21.9 262.008 21.9C259.409 21.9 257.305 19.77 257.305 17.14C257.315 14.51 259.409 12.38 262.008 12.38Z" fill="#FFC200"/>
<path d="M29.5829 199.871L18.8557 191.068" stroke="url(#paint1_linear)" stroke-miterlimit="10"/>
<path d="M31.8427 197.106L15.0001 183.28" stroke="url(#paint2_linear)" stroke-miterlimit="10"/>
<path d="M40.7022 199.749L23.3854 185.548" stroke="url(#paint3_linear)" stroke-miterlimit="10"/>
<defs>
<linearGradient id="paint0_linear" x1="215.668" y1="1" x2="215.668" y2="205" gradientUnits="userSpaceOnUse">
<stop stop-color="#DA7D7D"/>
<stop offset="1" stop-color="#AAA4FC" stop-opacity="0"/>
</linearGradient>
<linearGradient id="paint1_linear" x1="24.7342" y1="200.7" x2="23.7014" y2="190.235" gradientUnits="userSpaceOnUse">
<stop offset="0.0277" stop-color="#FFD24D"/>
<stop offset="0.7154" stop-color="#F6BE56"/>
<stop offset="1" stop-color="#F2B45A"/>
</linearGradient>
<linearGradient id="paint2_linear" x1="24.2129" y1="198.213" x2="22.6299" y2="182.174" gradientUnits="userSpaceOnUse">
<stop offset="0.0277" stop-color="#FFD24D"/>
<stop offset="0.7154" stop-color="#F6BE56"/>
<stop offset="1" stop-color="#F2B45A"/>
</linearGradient>
<linearGradient id="paint3_linear" x1="32.855" y1="200.874" x2="31.2305" y2="184.415" gradientUnits="userSpaceOnUse">
<stop offset="0.0277" stop-color="#FFD24D"/>
<stop offset="0.7154" stop-color="#F6BE56"/>
<stop offset="1" stop-color="#F2B45A"/>
</linearGradient>
</defs>
</svg>
